<svg xmlns="http://www.w3.org/2000/svg" viewBox="0 0 1024 1024">
  <defs>
    <linearGradient id="bg" x1="148" y1="96" x2="876" y2="928" gradientUnits="userSpaceOnUse">
      <stop stop-color="#3B82F6"/>
      <stop offset=".58" stop-color="#2563EB"/>
      <stop offset="1" stop-color="#172033"/>
    </linearGradient>
    <linearGradient id="front" x1="276" y1="250" x2="724" y2="790" gradientUnits="userSpaceOnUse">
      <stop stop-color="#FFFFFF"/>
      <stop offset="1" stop-color="#E8EEF7"/>
    </linearGradient>
    <filter id="shadow" x="120" y="120" width="784" height="784" color-interpolation-filters="sRGB" filterUnits="userSpaceOnUse">
      <feDropShadow dx="0" dy="34" stdDeviation="34" flood-color="#0F172A" flood-opacity=".24"/>
    </filter>
  </defs>
  <rect width="1024" height="1024" rx="232" fill="url(#bg)"/>
  <g filter="url(#shadow)">
    <rect x="256" y="228" width="436" height="496" rx="70" fill="#0F172A" opacity=".28"/>
    <rect x="332" y="300" width="436" height="496" rx="70" fill="url(#front)"/>
  </g>
  <rect x="388" y="382" width="246" height="46" rx="23" fill="#172033"/>
  <rect x="388" y="478" width="176" height="46" rx="23" fill="#2563EB"/>
  <rect x="388" y="574" width="226" height="46" rx="23" fill="#16A34A"/>
  <circle cx="704" cy="512" r="72" fill="#172033"/>
  <path d="M674 512h88" stroke="#FFFFFF" stroke-width="38" stroke-linecap="round"/>
  <path d="M724 472l40 40-40 40" fill="none" stroke="#FFFFFF" stroke-width="38" stroke-linecap="round" stroke-linejoin="round"/>
  <path d="M270 678c58 58 132 88 222 88h44" fill="none" stroke="#FFFFFF" stroke-width="44" stroke-linecap="round"/>
  <path d="M512 700l58 66-58 66" fill="none" stroke="#FFFFFF" stroke-width="44" stroke-linecap="round" stroke-linejoin="round"/>
</svg>
